<svg width="100" height="100" viewBox="0 0 100 100" fill="none" xmlns="http://www.w3.org/2000/svg">
<g clip-path="url(#clip0_34_613)">
<path fill-rule="evenodd" clip-rule="evenodd" d="M77.3582 30.239L77.7893 30.9055L76.0108 34.0085C75.8903 34.2158 75.7572 34.4103 75.6113 34.5921C75.4655 34.777 75.3007 34.9556 75.1168 35.1342L75.2055 35.2681C75.4655 35.0545 75.6969 34.8695 75.903 34.7132C76.1091 34.557 76.2771 34.4358 76.4071 34.3497L78.9433 32.6914L79.2635 33.1857L74.6729 36.1834L74.3654 35.7114L76.5403 31.9898C76.6258 31.8431 76.7336 31.6868 76.8636 31.5274C76.9936 31.3647 77.1489 31.1989 77.3265 31.0235L77.2504 30.9023C77.0475 31.0682 76.8509 31.218 76.6671 31.3616C76.48 31.5019 76.3088 31.6231 76.1503 31.7251L73.0846 33.7278L72.7676 33.2367L77.3582 30.239Z" fill="#524193"/>
<path fill-rule="evenodd" clip-rule="evenodd" d="M69.3881 27.6719L69.7083 27.9429L69.2011 28.552C68.8745 28.5202 68.5892 28.4596 68.3483 28.3671C68.1073 28.2746 67.8854 28.147 67.6857 27.9748C67.2133 27.5762 67.0104 27.0691 67.0706 26.46C67.134 25.8477 67.4574 25.1908 68.0439 24.4892C68.6146 23.8036 69.1979 23.3858 69.7939 23.2327C70.3899 23.0796 70.9321 23.2072 71.4171 23.6186C71.5883 23.7621 71.7373 23.9439 71.8641 24.1607C71.9878 24.3776 72.0987 24.6423 72.1939 24.958L71.7025 25.5448L71.3823 25.2737C71.4615 24.9803 71.4774 24.7316 71.4298 24.5275C71.3791 24.3234 71.2618 24.1416 71.0747 23.9821C70.7387 23.6983 70.3487 23.6409 69.9081 23.8099C69.4674 23.979 68.9887 24.3744 68.4751 24.9899C68.0059 25.5543 67.7332 26.0614 67.6635 26.5142C67.5906 26.9671 67.7237 27.337 68.0566 27.6177C68.2532 27.7835 68.4592 27.8696 68.678 27.8792C68.8936 27.8855 69.1313 27.8186 69.3818 27.6687" fill="#524193"/>
<path fill-rule="evenodd" clip-rule="evenodd" d="M64.5374 25.2898L65.2634 25.7458L65.0447 26.0966L63.0664 24.8529L63.282 24.5021L64.008 24.9581L66.4745 20.9877L65.7485 20.5317L65.9672 20.1809L67.9455 21.4246L67.7268 21.7754L67.0039 21.3194L64.5374 25.2898Z" fill="#524193"/>
<path fill-rule="evenodd" clip-rule="evenodd" d="M57.4297 22.5375L54.6018 21.8136L55.9524 16.4751L58.6757 17.1735L58.5615 17.6295L56.4406 17.0842L55.9841 18.8956L57.9909 19.409L57.8672 19.8906L55.8636 19.3771L55.3246 21.4915L57.5502 22.0623L57.4297 22.5375Z" fill="#524193"/>
<path fill-rule="evenodd" clip-rule="evenodd" d="M50.0047 16L50.7751 16.0574L51.314 19.1603C51.3552 19.4027 51.3933 19.661 51.4281 19.9321C51.463 20.2063 51.4979 20.4966 51.5264 20.8027L51.6406 20.8123C51.6976 20.4806 51.7547 20.1776 51.8086 19.9034C51.8657 19.6291 51.9195 19.3868 51.9734 19.1731L52.7058 16.1977L53.4571 16.2519L53.2764 21.7498L52.8358 21.718L52.9436 18.4237C52.9436 18.3599 52.9562 18.21 52.9753 17.974C52.9943 17.738 53.0323 17.2979 53.0894 16.6538L52.9879 16.6474L51.742 21.6382L51.3679 21.6095L50.4422 16.4592L50.3502 16.4528C50.3693 16.7048 50.3788 16.9567 50.3851 17.2118C50.3883 17.467 50.3851 17.7604 50.3756 18.092L50.3693 18.261L50.2615 21.5298L49.8208 21.4979L50.0015 16H50.0047Z" fill="#524193"/>
<path fill-rule="evenodd" clip-rule="evenodd" d="M34.9268 19.897L35.4816 19.6132L36.5278 21.6892L38.5377 20.6655L37.4947 18.5895L38.0463 18.3088L40.5192 23.2232L39.9676 23.5038L38.7723 21.1311L36.7624 22.1548L37.9544 24.5275L37.3964 24.8081L34.9268 19.897Z" fill="#524193"/>
<path fill-rule="evenodd" clip-rule="evenodd" d="M35.0282 26.0423L34.4892 26.3548L31.991 22.005L30.7292 22.7416L30.4883 22.3175L33.5223 20.5571L33.7664 20.9781L32.53 21.6924L35.0282 26.0423Z" fill="#524193"/>
<path fill-rule="evenodd" clip-rule="evenodd" d="M20.4194 33.8299L20.8347 33.1539L24.3791 33.4441C24.6169 33.4664 24.8484 33.5047 25.0766 33.5589C25.3049 33.6131 25.5363 33.6833 25.7773 33.7725L25.8597 33.6354C25.5585 33.4887 25.2922 33.358 25.0639 33.24C24.8357 33.122 24.655 33.0199 24.5218 32.937L21.9475 31.3393L22.255 30.8386L26.9122 33.7311L26.6174 34.2126L22.3406 33.8268C22.1726 33.814 21.9887 33.7789 21.7858 33.7311C21.5829 33.6801 21.3674 33.6131 21.1359 33.527L21.0598 33.6482C21.2944 33.7598 21.5164 33.8746 21.7193 33.983C21.9253 34.0946 22.1092 34.1967 22.2677 34.2987L25.3778 36.2313L25.0734 36.7288L20.4163 33.8363L20.4194 33.8299Z" fill="#524193"/>
<path fill-rule="evenodd" clip-rule="evenodd" d="M84 48.6079L83.9937 51.545L78.5186 51.5323L78.5249 48.7068L78.9909 48.71L78.9878 50.9072L80.8424 50.9136L80.8456 48.828L81.3401 48.8311L81.337 50.9136L83.5086 50.9168L83.5118 48.6079H84Z" fill="#524193"/>
<path fill-rule="evenodd" clip-rule="evenodd" d="M82.4909 53.9624L82.5543 53.5478L83.3342 53.669C83.4769 53.9688 83.572 54.243 83.6195 54.4982C83.6671 54.7533 83.6703 55.0116 83.629 55.2699C83.5339 55.8822 83.2074 56.3191 82.6558 56.5806C82.101 56.8421 81.375 56.9027 80.4746 56.7592C79.5964 56.6221 78.937 56.3351 78.4995 55.8982C78.062 55.4644 77.8908 54.9319 77.9891 54.3004C78.0239 54.0772 78.1 53.8572 78.2173 53.6339C78.3378 53.4139 78.5058 53.1811 78.7277 52.9387L79.4791 53.0599L79.4157 53.4745C79.124 53.5542 78.9021 53.6722 78.7531 53.8189C78.6041 53.9688 78.5122 54.1633 78.4741 54.4057C78.4075 54.8426 78.5597 55.2061 78.9306 55.4995C79.3016 55.7929 79.8849 56.0002 80.6743 56.1246C81.3971 56.2394 81.971 56.2107 82.3926 56.0385C82.8174 55.8663 83.0616 55.5633 83.1313 55.1296C83.1693 54.8745 83.1376 54.6512 83.033 54.4599C82.9284 54.2686 82.7477 54.1027 82.4877 53.9624" fill="#524193"/>
<path fill-rule="evenodd" clip-rule="evenodd" d="M76.4482 60.3978L76.7526 59.6643L80.3002 59.3933C80.5379 59.3773 80.7725 59.3773 81.0072 59.3933C81.2418 59.4092 81.4827 59.4443 81.73 59.4953L81.7934 59.3454C81.47 59.2498 81.1879 59.1605 80.9437 59.0808C80.6996 58.9978 80.5062 58.9277 80.3636 58.8671L77.5737 57.6935L77.7988 57.1482L82.8491 59.2721L82.6335 59.7919L78.3504 60.0853C78.1792 60.0981 77.9954 60.0949 77.7893 60.0757C77.5832 60.0566 77.3581 60.0247 77.114 59.9769L77.0569 60.1108C77.3074 60.1874 77.542 60.2607 77.7608 60.3372C77.9795 60.4138 78.1761 60.4871 78.3504 60.5605L81.7236 61.9796L81.4985 62.5185L76.4482 60.3978Z" fill="#524193"/>
<path fill-rule="evenodd" clip-rule="evenodd" d="M80.8298 64.2757L79.4983 66.8907L74.6287 64.3777L75.9095 61.8647L76.3216 62.0752L75.3261 64.0333L76.9779 64.8848L77.9226 63.0319L78.3633 63.2584L77.4185 65.1112L79.3493 66.1094L80.3955 64.0524L80.8298 64.2757Z" fill="#524193"/>
<path fill-rule="evenodd" clip-rule="evenodd" d="M78.0874 69.2379L76.5435 71.298L72.1716 67.9814L72.5489 67.4807L76.5276 70.5007L77.7007 68.9413L78.0874 69.2379Z" fill="#524193"/>
<path fill-rule="evenodd" clip-rule="evenodd" d="M74.9837 73.0584L73.1703 74.8857L69.2993 70.9919L69.74 70.5486L73.2654 74.0948L74.6413 72.7139L74.9837 73.0584Z" fill="#524193"/>
<path fill-rule="evenodd" clip-rule="evenodd" d="M70.913 76.8535L68.5511 78.5787L65.3333 74.1236L67.6064 72.4653L67.879 72.8448L66.11 74.1364L67.2006 75.6448L68.8777 74.4202L69.1693 74.8252L67.4922 76.0498L68.7699 77.8165L70.6245 76.4548L70.913 76.8535Z" fill="#524193"/>
<path fill-rule="evenodd" clip-rule="evenodd" d="M65.4791 78.9963L65.85 78.8081L66.2083 79.5161C66.0497 79.8031 65.8817 80.0423 65.7042 80.2305C65.5266 80.4186 65.3206 80.5717 65.086 80.6929C64.5375 80.9703 63.9922 80.9639 63.4596 80.6642C62.9238 80.3676 62.4514 79.8095 62.0393 78.9931C61.6367 78.1958 61.4813 77.4911 61.5764 76.8788C61.6684 76.2665 62.0012 75.8168 62.5687 75.5266C62.7685 75.4246 62.9904 75.3576 63.2377 75.3257C63.485 75.2938 63.7703 75.297 64.0968 75.3353L64.4424 76.0177L64.0715 76.2091C63.8337 76.0177 63.6118 75.9061 63.4089 75.871C63.2028 75.8359 62.9904 75.8742 62.7716 75.9858C62.3785 76.1867 62.1756 76.5216 62.1566 76.9999C62.1376 77.4751 62.3119 78.0715 62.6734 78.789C63.0062 79.4459 63.3645 79.8956 63.7513 80.1412C64.138 80.3867 64.5248 80.409 64.9148 80.2081C65.143 80.0933 65.3047 79.9339 65.3967 79.7361C65.4886 79.5384 65.5171 79.2929 65.4791 78.9995" fill="#524193"/>
<path fill-rule="evenodd" clip-rule="evenodd" d="M58.7548 80.0935L56.6973 77.8643L57.3884 77.6666L58.3744 78.7668C58.5075 78.9167 58.6312 79.073 58.7485 79.2356C58.8626 79.3983 58.9704 79.5673 59.0718 79.7427L59.2082 79.7044C59.2082 79.462 59.2113 79.2452 59.224 79.0506C59.2367 78.8561 59.2494 78.6903 59.2684 78.5436L59.4776 77.0639L60.1244 76.8789L59.5696 79.8607L61.6651 82.16L61.0121 82.3481L59.8771 81.0853C59.7091 80.9003 59.5791 80.7472 59.4871 80.6228C59.3984 80.4985 59.3191 80.3645 59.2462 80.2242L59.1099 80.2657C59.1226 80.4475 59.1226 80.6324 59.1194 80.8174C59.113 81.0055 59.0972 81.2001 59.0718 81.4074L58.8689 82.9668L58.1937 83.1613L58.758 80.0935H58.7548Z" fill="#524193"/>
<path fill-rule="evenodd" clip-rule="evenodd" d="M55.9619 83.6427L53.0642 83.9999L52.3984 78.5339L55.1851 78.1895L55.2422 78.6551L53.0737 78.9229L53.2988 80.7758L55.3532 80.5206L55.4134 81.0149L53.359 81.2701L53.6222 83.4354L55.9016 83.1548L55.9619 83.6427Z" fill="#524193"/>
<path fill-rule="evenodd" clip-rule="evenodd" d="M43.3026 77.8611L44.0857 77.9727L45.246 81.3563C45.3221 81.5827 45.3823 81.8123 45.4204 82.0451C45.4616 82.2747 45.4901 82.5203 45.506 82.7754L45.6645 82.7977C45.6772 82.4629 45.6899 82.1631 45.7057 81.908C45.7247 81.6497 45.7438 81.4424 45.7628 81.2861L46.1844 78.2725L46.7646 78.3554L46.0006 83.8087L45.4426 83.7289L44.0762 79.6342C44.0191 79.4716 43.9747 79.2898 43.943 79.0857C43.9081 78.8784 43.886 78.652 43.8701 78.4032L43.7274 78.3841C43.7179 78.6456 43.7052 78.8943 43.6894 79.1271C43.6704 79.3599 43.6482 79.5704 43.6228 79.7586L43.1156 83.4005L42.5386 83.3207L43.2994 77.8675L43.3026 77.8611Z" fill="#524193"/>
<path fill-rule="evenodd" clip-rule="evenodd" d="M34.5369 79.9786L35.3104 80.3422L35.1361 80.7153L33.0215 79.7235L33.1959 79.3472L33.9726 79.714L35.9382 75.4693L35.1614 75.1058L35.3358 74.7327L37.4504 75.7245L37.276 76.0976L36.5025 75.734L34.5369 79.9786Z" fill="#524193"/>
<path fill-rule="evenodd" clip-rule="evenodd" d="M31.2587 76.9937L31.6138 77.2169L31.1953 77.8898C30.8688 77.9058 30.5771 77.8835 30.3267 77.8261C30.0762 77.7686 29.8384 77.6698 29.6165 77.5327C29.0934 77.2042 28.8208 76.7322 28.7986 76.1167C28.7764 75.5012 29.0078 74.806 29.4897 74.0279C29.9589 73.2689 30.482 72.7714 31.0495 72.5386C31.617 72.3026 32.1718 72.3537 32.7107 72.6949C32.901 72.8161 33.0722 72.9723 33.2275 73.1669C33.3828 73.3646 33.5287 73.6101 33.665 73.9099L33.2624 74.5605L32.9073 74.3404C32.9485 74.0375 32.9295 73.7887 32.8534 73.5942C32.7773 73.3997 32.6347 73.237 32.4254 73.1063C32.0513 72.8703 31.6582 72.8703 31.2461 73.0999C30.8339 73.3295 30.4123 73.7855 29.9906 74.468C29.6038 75.093 29.4041 75.632 29.3978 76.0912C29.3883 76.5504 29.569 76.898 29.9399 77.1308C30.1555 77.268 30.3742 77.3254 30.5898 77.303C30.8054 77.2807 31.0305 77.1755 31.2587 76.9937Z" fill="#524193"/>
<path fill-rule="evenodd" clip-rule="evenodd" d="M25.7456 73.2975L26.31 73.9417L26.0024 74.216L24.4617 72.4524L24.7692 72.1814L25.3335 72.8255L28.8272 69.7322L28.2629 69.088L28.5704 68.8137L30.1112 70.5773L29.8036 70.8483L29.2393 70.2041L25.7456 73.2975Z" fill="#524193"/>
<path fill-rule="evenodd" clip-rule="evenodd" d="M25.5267 64.9199L26.0054 65.5514L24.4646 68.7787C24.36 68.9923 24.2395 69.1964 24.1095 69.391C23.9764 69.5855 23.8274 69.7769 23.6594 69.9682L23.7576 70.0958C24.0017 69.863 24.2173 69.662 24.4107 69.4898C24.6041 69.3176 24.7626 69.1869 24.8863 69.0912L27.2925 67.2479L27.6476 67.7167L23.2916 71.0525L22.9524 70.6028L24.845 66.7281C24.918 66.5751 25.0131 66.4124 25.1335 66.2402C25.254 66.0712 25.3935 65.8926 25.5584 65.7044L25.4728 65.5896C25.2826 65.7682 25.0987 65.9372 24.9243 66.0903C24.7499 66.2434 24.5851 66.3773 24.4361 66.4921L21.5257 68.7181L21.1738 68.2525L25.5267 64.9167V64.9199Z" fill="#524193"/>
<path fill-rule="evenodd" clip-rule="evenodd" d="M23.5549 60.6306L23.8371 61.1887L21.7763 62.2475L22.8004 64.2693L24.8611 63.2106L25.1432 63.7654L20.2673 66.2688L19.9851 65.714L22.3375 64.5053L21.3135 62.4866L18.9611 63.6921L18.679 63.1372L23.5549 60.6306Z" fill="#524193"/>
<path fill-rule="evenodd" clip-rule="evenodd" d="M18.9072 60.4553L19.0086 60.8635L18.2414 61.058C17.9973 60.8412 17.8007 60.6243 17.658 60.4074C17.5154 60.1906 17.4139 59.9578 17.3474 59.6995C17.1984 59.0968 17.3252 58.5674 17.7341 58.1081C18.1399 57.6489 18.7867 57.3077 19.6712 57.0845C20.5335 56.8644 21.2532 56.8708 21.8238 57.0972C22.3977 57.3236 22.7591 57.7478 22.9144 58.3665C22.9683 58.5865 22.9842 58.8193 22.962 59.0681C22.9366 59.3168 22.8732 59.5974 22.7654 59.9068L22.0267 60.0949L21.9253 59.6899C22.1631 59.4986 22.3216 59.3072 22.4008 59.1127C22.4801 58.9182 22.4896 58.7013 22.4294 58.4621C22.3216 58.0348 22.0394 57.7605 21.5829 57.6362C21.1264 57.515 20.5113 57.5501 19.7346 57.7478C19.0245 57.9264 18.5077 58.1815 18.1875 58.5036C17.8641 58.8289 17.7563 59.2052 17.8641 59.6325C17.9275 59.8813 18.0448 60.0726 18.216 60.2097C18.3872 60.3437 18.6187 60.4266 18.9103 60.4553" fill="#524193"/>
<path fill-rule="evenodd" clip-rule="evenodd" d="M16.3993 55.8153L16.1204 52.8909L21.5701 52.3647L21.8364 55.1775L21.3736 55.2221L21.1643 53.0344L19.3192 53.2098L19.5158 55.2827L19.0212 55.3337L18.8246 53.2577L16.6657 53.4682L16.8844 55.7675L16.3993 55.8153Z" fill="#524193"/>
<path fill-rule="evenodd" clip-rule="evenodd" d="M16 49.2969L16.019 48.6687L21.0059 48.809L21.0471 47.342L21.529 47.3548L21.4339 50.8787L20.9489 50.8659L20.9901 49.4341L16 49.2969Z" fill="#524193"/>
<path fill-rule="evenodd" clip-rule="evenodd" d="M49.9858 23.5166C64.4773 23.5166 76.2296 35.3416 76.2296 49.9219C76.2296 64.5022 64.4773 76.324 49.9858 76.324C35.4943 76.324 23.7419 64.499 23.7419 49.9187C23.7419 35.3384 35.4911 23.5166 49.9858 23.5166Z" fill="#524193"/>
<path fill-rule="evenodd" clip-rule="evenodd" d="M45.8771 54.7852H48.0424L46.9803 48.4868H46.8979L45.8771 54.7852ZM41.3879 61.4758L45.1257 41.9557H48.613L52.3508 61.4758H48.9491L48.5782 58.1465H45.3508L44.7294 61.4758H41.3911H41.3879ZM52.3096 41.9557V45.7124H54.7761V61.4758H58.2539V45.7124H60.7141V41.9557H52.3064H52.3096ZM62.5022 41.9557V61.4758H69.2549V57.0686H66.1227V53.0886H68.9252V49.1055H66.1227V45.9356H69.2549V44.7716L71.4107 46.0376V43.2887L69.2549 42.0195V41.9557H69.144L49.4437 30.3699L30.0984 41.9557H30.0667V41.9748L27.261 43.6554V46.4044L30.0667 44.7238V61.4726H33.5065V52.3934L36.8448 61.4726H39.9295V41.9525H36.6673V52.1734L33.5731 42.6222L49.4405 33.1252L64.4614 41.9557H62.499H62.5022Z" fill="#FFD233"/>
<path fill-rule="evenodd" clip-rule="evenodd" d="M79.6187 39.9211C80.4556 39.9211 81.1373 40.6068 81.1373 41.4551C81.1373 42.3034 80.4556 42.989 79.6187 42.989C78.7817 42.989 78.1001 42.3034 78.1001 41.4551C78.1001 40.6068 78.7785 39.9211 79.6187 39.9211Z" fill="#524193"/>
<path fill-rule="evenodd" clip-rule="evenodd" d="M20.0515 39.9561C20.8917 39.9561 21.5701 40.6417 21.5701 41.49C21.5701 42.3383 20.8885 43.0239 20.0515 43.0239C19.2146 43.0239 18.533 42.3351 18.533 41.49C18.533 40.6449 19.2146 39.9561 20.0515 39.9561Z" fill="#524193"/>
<path fill-rule="evenodd" clip-rule="evenodd" d="M39.2097 79.143L38.525 80.1029L39.904 80.6482L40.0372 79.4715C40.0784 79.1494 40.1323 78.8273 40.1957 78.5084C40.2623 78.1895 40.3384 77.8737 40.4303 77.5612L40.1862 77.4656C40.034 77.7845 39.8755 78.0842 39.7138 78.3617C39.5521 78.6391 39.3841 78.9006 39.2066 79.143M40.1386 76.8564L40.9312 77.169L40.2813 82.8263L39.6187 82.5648L39.7804 81.1234L38.3062 80.543L37.4344 81.7038L36.8162 81.4614L40.1418 76.8564H40.1386Z" fill="#524193"/>
<path fill-rule="evenodd" clip-rule="evenodd" d="M28.4117 31.1544C28.7066 30.826 28.789 30.4528 28.6622 30.0351C28.5322 29.6173 28.1961 29.1613 27.6508 28.667C27.0041 28.0802 26.4556 27.7294 26.015 27.6178C25.5743 27.5062 25.2002 27.6242 24.8927 27.9654C24.5947 28.3002 24.5154 28.6797 24.6581 29.1071C24.8039 29.5344 25.1685 30.0159 25.7582 30.5485C26.3542 31.0875 26.8709 31.4064 27.3085 31.5052C27.746 31.6041 28.1137 31.4861 28.4117 31.1512M24.5376 27.6305C24.9719 27.1458 25.476 26.9385 26.053 27.0087C26.63 27.0788 27.2641 27.4296 27.9552 28.0547C28.6685 28.702 29.0933 29.3112 29.2328 29.882C29.3692 30.4528 29.217 30.9822 28.7795 31.4733C28.3451 31.9613 27.8316 32.1654 27.245 32.092C26.6617 32.0155 26.0181 31.6615 25.3175 31.0269C24.62 30.3954 24.2047 29.7927 24.0747 29.2251C23.9416 28.6542 24.0969 28.1216 24.5344 27.6337L24.5376 27.6305Z" fill="#524193"/>
<path fill-rule="evenodd" clip-rule="evenodd" d="M29.3439 26.8779C29.3725 26.8556 29.4042 26.8332 29.439 26.8045C29.4739 26.7758 29.5246 26.7344 29.5912 26.6738C29.9907 26.3294 30.2158 26.0041 30.276 25.7011C30.3362 25.395 30.2284 25.0856 29.959 24.7699C29.7085 24.4765 29.4359 24.3394 29.1474 24.3554C28.8557 24.3713 28.5228 24.5435 28.1455 24.872C28.0916 24.9198 28.0029 25.0027 27.8761 25.1271L27.857 25.1431L29.3471 26.8811L29.3439 26.8779ZM27.0771 25.1941L28.0758 24.3267C28.5165 23.944 28.9445 23.7494 29.3566 23.7399C29.7719 23.7303 30.1365 23.9057 30.4472 24.2693C30.6755 24.5339 30.7959 24.8305 30.8149 25.1526C30.8308 25.4747 30.7389 25.8128 30.5391 26.1635L33.3829 26.9895L32.8186 27.4806L30.3014 26.7025L29.6673 27.2542L31.1256 28.954L30.6533 29.3622L27.0771 25.1941Z" fill="#524193"/>
<path fill-rule="evenodd" clip-rule="evenodd" d="M46.3558 18.7044L46.1339 19.8652L47.6145 19.7759L47.2467 18.6502C47.1484 18.3377 47.0628 18.0251 46.9899 17.7094C46.917 17.3905 46.8567 17.0716 46.8092 16.7495L46.5461 16.7655C46.5397 17.1194 46.5207 17.4575 46.4922 17.7796C46.4605 18.1017 46.4161 18.4078 46.359 18.7044M46.2512 16.2361L47.1009 16.1851L48.8667 21.5969L48.1566 21.6383L47.7032 20.2638L46.1212 20.3595L45.8105 21.7786L45.1479 21.8169L46.2449 16.2361H46.2512Z" fill="#524193"/>
<path fill-rule="evenodd" clip-rule="evenodd" d="M60.1782 20.7868C60.21 20.8028 60.248 20.8187 60.2892 20.8347C60.3304 20.8506 60.3938 20.8761 60.4763 20.9048C60.9677 21.0834 61.3608 21.1249 61.6556 21.0292C61.9473 20.9304 62.166 20.688 62.3087 20.2925C62.4419 19.929 62.4292 19.626 62.2707 19.3773C62.1153 19.1317 61.8014 18.9213 61.3322 18.749C61.2657 18.7235 61.1484 18.6885 60.9803 18.6374L60.9581 18.6279L60.1814 20.7837L60.1782 20.7868ZM60.5302 17.9773L61.7697 18.4301C62.3182 18.631 62.6955 18.9085 62.9079 19.2689C63.1203 19.6292 63.1425 20.0342 62.9808 20.4839C62.8603 20.8155 62.6669 21.0643 62.3943 21.2365C62.1216 21.4087 61.7856 21.4916 61.383 21.4884L62.0551 24.3905L61.3544 24.1353L60.7996 21.5458L60.0102 21.2588L59.2462 23.3668L58.6597 23.1531L60.5302 17.9773Z" fill="#524193"/>
<path fill-rule="evenodd" clip-rule="evenodd" d="M72.7264 28.6063L71.6771 29.1356L72.6503 30.2614L73.3098 29.2791C73.4936 29.0113 73.6902 28.753 73.8931 28.501C74.0992 28.2491 74.3148 28.0035 74.5367 27.7739L74.3655 27.573C74.0833 27.7867 73.8043 27.978 73.5349 28.147C73.2622 28.3192 72.9927 28.4723 72.7264 28.6031M74.6033 27.0085L75.1612 27.6559L71.9782 32.3661L71.509 31.824L72.3143 30.6249L71.2744 29.4227L69.9651 30.0413L69.5308 29.5375L74.6001 27.0085H74.6033Z" fill="#524193"/>
<path fill-rule="evenodd" clip-rule="evenodd" d="M75.8175 78.6903C76.9113 78.6903 77.8053 79.5864 77.8053 80.6866C77.8053 81.7869 76.9113 82.683 75.8175 82.683C74.7237 82.683 73.8329 81.7869 73.8329 80.6866C73.8329 79.5864 74.7269 78.6903 75.8175 78.6903ZM75.8175 78.3586C77.0951 78.3586 78.135 79.4047 78.135 80.6898C78.135 81.975 77.0951 83.0178 75.8175 83.0178C74.5399 83.0178 73.5032 81.9718 73.5032 80.6898C73.5032 79.4078 74.543 78.3586 75.8175 78.3586Z" fill="#524193"/>
<path d="M75.1549 79.7171V82.1216H74.8569V79.4524H75.6844C75.8651 79.4524 76.0109 79.4651 76.1219 79.4875C76.2329 79.513 76.3343 79.5513 76.4231 79.6055C76.5467 79.6788 76.6418 79.7809 76.7147 79.9052C76.7845 80.0296 76.8225 80.1604 76.8225 80.3007C76.8225 80.508 76.7528 80.6834 76.6101 80.8332C76.4675 80.9831 76.2931 81.0629 76.0775 81.0756L76.8225 82.1184H76.4643L75.5512 80.8332H75.8429C76.0363 80.8332 76.1948 80.7822 76.3184 80.6834C76.4389 80.5845 76.5023 80.4569 76.5023 80.3007C76.5023 80.205 76.4833 80.1221 76.4453 80.0456C76.4072 79.969 76.3533 79.902 76.2772 79.8446C76.217 79.7968 76.1441 79.7649 76.0585 79.7426C75.9729 79.7235 75.8207 79.7139 75.602 79.7139H75.1549V79.7171Z" fill="#524193"/>
</g>
<defs>
<clipPath id="clip0_34_613">
<rect width="68" height="68" fill="white" transform="translate(16 16)"/>
</clipPath>
</defs>
</svg>
