<svg width="127" height="28" viewBox="0 0 127 28" fill="none" xmlns="http://www.w3.org/2000/svg">
<path d="M13.176 7.6C12.5147 7.6 12.0027 7.39733 11.64 6.992C11.2773 6.58667 11.096 6.064 11.096 5.424C11.096 4.76267 11.2347 4.25067 11.512 3.888C10.8293 3.248 9.89067 2.928 8.696 2.928C6.94667 2.928 5.624 3.664 4.728 5.136C3.832 6.58667 3.384 8.73067 3.384 11.568C3.384 17.264 5.15467 20.112 8.696 20.112C9.54933 20.112 10.4133 19.9093 11.288 19.504C12.184 19.0773 12.9413 18.5227 13.56 17.84C14.2213 18.3733 14.648 19.216 14.84 20.368C12.9413 21.776 10.8933 22.48 8.696 22.48C5.90133 22.48 3.87467 21.616 2.616 19.888C1.37867 18.16 0.76 15.472 0.76 11.824C0.76 4.63467 3.40533 1.04 8.696 1.04C10.296 1.04 11.7147 1.46667 12.952 2.32C14.2107 3.152 14.84 4.24 14.84 5.584C14.84 6.928 14.2853 7.6 13.176 7.6ZM17.5963 14.416C17.5963 9.27467 19.6016 6.704 23.6123 6.704C27.6229 6.704 29.6283 9.27467 29.6283 14.416C29.6283 16.784 29.2549 18.6613 28.5083 20.048C27.6549 21.6693 26.0229 22.48 23.6123 22.48C21.2016 22.48 19.5696 21.6693 18.7163 20.048C17.9696 18.6613 17.5963 16.784 17.5963 14.416ZM20.2203 14.352C20.2203 18.2347 21.3509 20.176 23.6123 20.176C25.8736 20.176 27.0043 18.2347 27.0043 14.352C27.0043 10.448 25.8736 8.496 23.6123 8.496C21.3509 8.496 20.2203 10.448 20.2203 14.352ZM32.5025 14.416C32.5025 9.27467 34.5078 6.704 38.5185 6.704C42.5292 6.704 44.5345 9.27467 44.5345 14.416C44.5345 16.784 44.1612 18.6613 43.4145 20.048C42.5612 21.6693 40.9292 22.48 38.5185 22.48C36.1078 22.48 34.4758 21.6693 33.6225 20.048C32.8758 18.6613 32.5025 16.784 32.5025 14.416ZM35.1265 14.352C35.1265 18.2347 36.2572 20.176 38.5185 20.176C40.7798 20.176 41.9105 18.2347 41.9105 14.352C41.9105 10.448 40.7798 8.496 38.5185 8.496C36.2572 8.496 35.1265 10.448 35.1265 14.352ZM48.9448 14.576V10.192C48.9448 6.352 48.8914 3.73867 48.7848 2.352L47.5048 2.256C47.4408 1.97867 47.4088 1.65867 47.4088 1.296C47.4088 0.911999 47.4194 0.634666 47.4408 0.463999C49.3821 0.357332 50.7688 0.261332 51.6008 0.175999L51.7288 0.335999C51.4301 2.87467 51.2808 5.60533 51.2808 8.528V13.808C51.2808 16.432 51.3768 18.544 51.5688 20.144L52.7528 20.24C52.7954 20.5813 52.8168 20.88 52.8168 21.136C52.8168 21.3707 52.7848 21.6693 52.7208 22.032C51.9741 22.0107 51.1101 22 50.1288 22C49.1474 22 48.2941 22.0107 47.5688 22.032C47.5048 21.712 47.4728 21.4347 47.4728 21.2C47.4728 20.944 47.4941 20.624 47.5368 20.24L48.6568 20.144C48.8488 18.1387 48.9448 16.2827 48.9448 14.576ZM69.0073 27.44C66.2126 27.44 64.1006 25.776 62.6713 22.448C59.4286 22.2133 57.3593 20.592 56.4633 17.584C56.0153 16.048 55.7913 14.032 55.7913 11.536C55.7913 4.53867 58.4046 1.04 63.6313 1.04C68.8793 1.04 71.5033 4.53867 71.5033 11.536C71.5033 13.008 71.4286 14.288 71.2793 15.376C71.1299 16.464 70.8419 17.5413 70.4153 18.608C69.5833 20.72 67.8659 21.968 65.2633 22.352C66.0739 24.2507 67.3646 25.2 69.1353 25.2C69.8819 25.2 70.6499 24.976 71.4393 24.528C72.2286 24.1013 72.9006 23.5147 73.4553 22.768C74.0313 23.344 74.4046 24.2507 74.5753 25.488C72.9753 26.7893 71.1193 27.44 69.0073 27.44ZM60.9433 19.408C61.6686 19.8773 62.5646 20.112 63.6313 20.112C64.7193 20.112 65.6259 19.8773 66.3513 19.408C67.0979 18.9387 67.6526 18.2667 68.0153 17.392C68.6553 15.8773 68.9753 13.936 68.9753 11.568C68.9753 5.808 67.1939 2.928 63.6313 2.928C60.0899 2.928 58.3193 5.808 58.3193 11.568C58.3193 15.6853 59.1939 18.2987 60.9433 19.408ZM75.874 17.872L75.906 14.448C75.906 12.5493 75.8207 10.7253 75.65 8.976L74.466 8.88C74.402 8.53867 74.37 8.18667 74.37 7.824C74.37 7.46133 74.3807 7.216 74.402 7.088C75.49 7.06667 76.8127 6.97067 78.37 6.8L78.53 6.96C78.338 8.21867 78.242 10.4693 78.242 13.712V15.216C78.242 17.008 78.402 18.288 78.722 19.056C79.0633 19.8027 79.6287 20.176 80.418 20.176C81.5273 20.176 82.7327 19.5253 84.034 18.224C84.0767 17.7333 84.098 16.784 84.098 15.376V14.448C84.098 12.5493 84.0127 10.7253 83.842 8.976L82.658 8.88C82.594 8.51733 82.562 8.16533 82.562 7.824C82.562 7.46133 82.5727 7.216 82.594 7.088C83.682 7.06667 85.0047 6.97067 86.562 6.8L86.722 6.96C86.53 8.21867 86.434 10.4693 86.434 13.712V14.736C86.434 16.4853 86.53 18.192 86.722 19.856L87.906 19.92C87.9487 20.3893 87.97 20.7413 87.97 20.976C87.97 21.1893 87.938 21.456 87.874 21.776C87.042 21.8187 85.8793 21.9253 84.386 22.096C84.2153 21.712 84.0873 21.1787 84.002 20.496C82.402 21.8187 80.93 22.48 79.586 22.48C78.242 22.48 77.282 22.1067 76.706 21.36C76.1513 20.6133 75.874 19.4507 75.874 17.872ZM96.2885 14.896C95.2432 14.896 94.2725 14.8427 93.3765 14.736C93.4192 18.3627 94.6245 20.176 96.9925 20.176C98.1872 20.176 99.5098 19.5147 100.961 18.192C101.579 18.832 101.974 19.6747 102.145 20.72C100.395 21.8933 98.5392 22.48 96.5765 22.48C94.6138 22.48 93.1525 21.808 92.1925 20.464C91.2325 19.0987 90.7525 17.104 90.7525 14.48C90.7525 11.856 91.2858 9.904 92.3525 8.624C93.4405 7.344 94.9765 6.704 96.9605 6.704C98.4325 6.704 99.6485 7.152 100.609 8.048C101.569 8.944 102.049 10.0427 102.049 11.344C102.07 12.6453 101.963 13.5733 101.729 14.128C100.129 14.64 98.3152 14.896 96.2885 14.896ZM96.7365 8.496C94.7525 8.496 93.6432 9.95733 93.4085 12.88C94.3685 12.9867 95.4245 13.04 96.5765 13.04C97.7285 13.04 98.6245 12.9333 99.2645 12.72C99.3498 12.1867 99.3925 11.792 99.3925 11.536C99.3925 10.5973 99.1472 9.86133 98.6565 9.328C98.1872 8.77333 97.5472 8.496 96.7365 8.496ZM110.182 6.704C111.675 6.704 112.859 7.056 113.734 7.76C114.63 8.464 115.078 9.38133 115.078 10.512C115.078 11.6213 114.577 12.176 113.574 12.176C112.977 12.176 112.507 11.9947 112.166 11.632C111.846 11.248 111.686 10.8 111.686 10.288C111.686 9.776 111.771 9.34933 111.942 9.008C111.43 8.60267 110.822 8.4 110.118 8.4C109.414 8.4 108.827 8.57067 108.358 8.912C107.91 9.25333 107.686 9.75467 107.686 10.416C107.686 11.0773 107.942 11.6533 108.454 12.144C108.987 12.6347 109.627 13.04 110.374 13.36C111.121 13.6587 111.867 13.9787 112.614 14.32C113.361 14.64 113.99 15.1093 114.502 15.728C115.035 16.3253 115.302 17.072 115.302 17.968C115.302 19.3547 114.833 20.4533 113.894 21.264C112.977 22.0747 111.718 22.48 110.118 22.48C108.518 22.48 107.206 22.1387 106.182 21.456C105.179 20.7733 104.678 19.8773 104.678 18.768V18.64C104.678 17.488 105.179 16.912 106.182 16.912C106.779 16.912 107.238 17.104 107.558 17.488C107.899 17.8507 108.07 18.2773 108.07 18.768C108.07 19.2587 108.017 19.6427 107.91 19.92C108.337 20.1973 109.009 20.336 109.926 20.336C110.865 20.336 111.569 20.176 112.038 19.856C112.529 19.536 112.774 19.0987 112.774 18.544C112.774 17.968 112.507 17.456 111.974 17.008C111.462 16.56 110.833 16.1867 110.086 15.888C109.339 15.568 108.593 15.2373 107.846 14.896C107.099 14.5333 106.459 14.0213 105.926 13.36C105.414 12.6987 105.158 11.9093 105.158 10.992C105.158 9.66933 105.617 8.624 106.534 7.856C107.473 7.088 108.689 6.704 110.182 6.704ZM119.056 16.816C119.056 16.816 119.078 14.4373 119.12 9.68C119.12 9.36 119.11 9.11467 119.088 8.944C118.192 8.944 117.552 8.95467 117.168 8.976C117.04 8.63467 116.976 8.304 116.976 7.984C116.976 7.64267 116.998 7.38667 117.04 7.216H118.992L118.832 4.848C119.366 4.67733 119.92 4.592 120.496 4.592C121.094 4.592 121.584 4.63467 121.968 4.72L121.68 7.184C122.854 7.16267 124.038 7.09867 125.232 6.992C125.36 7.26933 125.424 7.57867 125.424 7.92C125.424 8.24 125.382 8.63467 125.296 9.104C124.507 9.06133 123.259 9.01867 121.552 8.976C121.51 9.40267 121.488 10.032 121.488 10.864V17.36C121.488 17.9147 121.51 18.3733 121.552 18.736C121.616 19.0773 121.755 19.3973 121.968 19.696C122.203 19.9733 122.534 20.112 122.96 20.112C123.899 20.112 124.795 19.7813 125.648 19.12C126.096 19.76 126.32 20.624 126.32 21.712C125.147 22.224 124.123 22.48 123.248 22.48C122.395 22.48 121.712 22.3627 121.2 22.128C120.688 21.9147 120.294 21.6587 120.016 21.36C119.739 21.04 119.526 20.6027 119.376 20.048C119.163 19.2587 119.056 18.1813 119.056 16.816Z" fill="#0B5D1E"/>
</svg>
