<svg width="192" height="44" viewBox="0 0 192 44" fill="none" xmlns="http://www.w3.org/2000/svg">
<path d="M21.264 13.9C20.272 13.9 19.504 13.596 18.96 12.988C18.416 12.38 18.144 11.596 18.144 10.636C18.144 9.644 18.352 8.876 18.768 8.332C17.744 7.372 16.336 6.892 14.544 6.892C11.92 6.892 9.936 7.996 8.592 10.204C7.248 12.38 6.576 15.596 6.576 19.852C6.576 28.396 9.232 32.668 14.544 32.668C15.824 32.668 17.12 32.364 18.432 31.756C19.776 31.116 20.912 30.284 21.84 29.26C22.832 30.06 23.472 31.324 23.76 33.052C20.912 35.164 17.84 36.22 14.544 36.22C10.352 36.22 7.312 34.924 5.424 32.332C3.568 29.74 2.64 25.708 2.64 20.236C2.64 9.452 6.608 4.06 14.544 4.06C16.944 4.06 19.072 4.7 20.928 5.98C22.816 7.228 23.76 8.86 23.76 10.876C23.76 12.892 22.928 13.9 21.264 13.9ZM27.8944 24.124C27.8944 16.412 30.9024 12.556 36.9184 12.556C42.9344 12.556 45.9424 16.412 45.9424 24.124C45.9424 27.676 45.3824 30.492 44.2624 32.572C42.9824 35.004 40.5344 36.22 36.9184 36.22C33.3024 36.22 30.8544 35.004 29.5744 32.572C28.4544 30.492 27.8944 27.676 27.8944 24.124ZM31.8304 24.028C31.8304 29.852 33.5264 32.764 36.9184 32.764C40.3104 32.764 42.0064 29.852 42.0064 24.028C42.0064 18.172 40.3104 15.244 36.9184 15.244C33.5264 15.244 31.8304 18.172 31.8304 24.028ZM50.2538 24.124C50.2538 16.412 53.2618 12.556 59.2778 12.556C65.2938 12.556 68.3018 16.412 68.3018 24.124C68.3018 27.676 67.7418 30.492 66.6218 32.572C65.3418 35.004 62.8938 36.22 59.2778 36.22C55.6618 36.22 53.2138 35.004 51.9338 32.572C50.8138 30.492 50.2538 27.676 50.2538 24.124ZM54.1898 24.028C54.1898 29.852 55.8858 32.764 59.2778 32.764C62.6698 32.764 64.3658 29.852 64.3658 24.028C64.3658 18.172 62.6698 15.244 59.2778 15.244C55.8858 15.244 54.1898 18.172 54.1898 24.028ZM74.9171 24.364V17.788C74.9171 12.028 74.8371 8.108 74.6771 6.028L72.7571 5.884C72.6611 5.468 72.6131 4.988 72.6131 4.444C72.6131 3.868 72.6291 3.452 72.6611 3.196C75.5731 3.036 77.6531 2.892 78.9011 2.764L79.0931 3.004C78.6451 6.812 78.4211 10.908 78.4211 15.292V23.212C78.4211 27.148 78.5651 30.316 78.8531 32.716L80.6291 32.86C80.6931 33.372 80.7251 33.82 80.7251 34.204C80.7251 34.556 80.6771 35.004 80.5811 35.548C79.4611 35.516 78.1651 35.5 76.6931 35.5C75.2211 35.5 73.9411 35.516 72.8531 35.548C72.7571 35.068 72.7091 34.652 72.7091 34.3C72.7091 33.916 72.7411 33.436 72.8051 32.86L74.4851 32.716C74.7731 29.708 74.9171 26.924 74.9171 24.364ZM105.011 43.66C100.819 43.66 97.6509 41.164 95.5069 36.172C90.6429 35.82 87.5389 33.388 86.1949 28.876C85.5229 26.572 85.1869 23.548 85.1869 19.804C85.1869 9.308 89.1069 4.06 96.9469 4.06C104.819 4.06 108.755 9.308 108.755 19.804C108.755 22.012 108.643 23.932 108.419 25.564C108.195 27.196 107.763 28.812 107.123 30.412C105.875 33.58 103.299 35.452 99.3949 36.028C100.611 38.876 102.547 40.3 105.203 40.3C106.323 40.3 107.475 39.964 108.659 39.292C109.843 38.652 110.851 37.772 111.683 36.652C112.547 37.516 113.107 38.876 113.363 40.732C110.963 42.684 108.179 43.66 105.011 43.66ZM92.9149 31.612C94.0029 32.316 95.3469 32.668 96.9469 32.668C98.5789 32.668 99.9389 32.316 101.027 31.612C102.147 30.908 102.979 29.9 103.523 28.588C104.483 26.316 104.963 23.404 104.963 19.852C104.963 11.212 102.291 6.892 96.9469 6.892C91.6349 6.892 88.9789 11.212 88.9789 19.852C88.9789 26.028 90.2909 29.948 92.9149 31.612ZM115.311 29.308L115.359 24.172C115.359 21.324 115.231 18.588 114.975 15.964L113.199 15.82C113.103 15.308 113.055 14.78 113.055 14.236C113.055 13.692 113.071 13.324 113.103 13.132C114.735 13.1 116.719 12.956 119.055 12.7L119.295 12.94C119.007 14.828 118.863 18.204 118.863 23.068V25.324C118.863 28.012 119.103 29.932 119.583 31.084C120.095 32.204 120.943 32.764 122.127 32.764C123.791 32.764 125.599 31.788 127.551 29.836C127.615 29.1 127.647 27.676 127.647 25.564V24.172C127.647 21.324 127.519 18.588 127.263 15.964L125.487 15.82C125.391 15.276 125.343 14.748 125.343 14.236C125.343 13.692 125.359 13.324 125.391 13.132C127.023 13.1 129.007 12.956 131.343 12.7L131.583 12.94C131.295 14.828 131.151 18.204 131.151 23.068V24.604C131.151 27.228 131.295 29.788 131.583 32.284L133.359 32.38C133.423 33.084 133.455 33.612 133.455 33.964C133.455 34.284 133.407 34.684 133.311 35.164C132.063 35.228 130.319 35.388 128.079 35.644C127.823 35.068 127.631 34.268 127.503 33.244C125.103 35.228 122.895 36.22 120.879 36.22C118.863 36.22 117.423 35.66 116.559 34.54C115.727 33.42 115.311 31.676 115.311 29.308ZM145.933 24.844C144.365 24.844 142.909 24.764 141.565 24.604C141.629 30.044 143.437 32.764 146.989 32.764C148.781 32.764 150.765 31.772 152.941 29.788C153.869 30.748 154.461 32.012 154.717 33.58C152.093 35.34 149.309 36.22 146.365 36.22C143.421 36.22 141.229 35.212 139.789 33.196C138.349 31.148 137.629 28.156 137.629 24.22C137.629 20.284 138.429 17.356 140.029 15.436C141.661 13.516 143.965 12.556 146.941 12.556C149.149 12.556 150.973 13.228 152.413 14.572C153.853 15.916 154.573 17.564 154.573 19.516C154.605 21.468 154.445 22.86 154.093 23.692C151.693 24.46 148.973 24.844 145.933 24.844ZM146.605 15.244C143.629 15.244 141.965 17.436 141.613 21.82C143.053 21.98 144.637 22.06 146.365 22.06C148.093 22.06 149.437 21.9 150.397 21.58C150.525 20.78 150.589 20.188 150.589 19.804C150.589 18.396 150.221 17.292 149.485 16.492C148.781 15.66 147.821 15.244 146.605 15.244ZM166.773 12.556C169.013 12.556 170.789 13.084 172.101 14.14C173.445 15.196 174.117 16.572 174.117 18.268C174.117 19.932 173.365 20.764 171.861 20.764C170.965 20.764 170.261 20.492 169.749 19.948C169.269 19.372 169.029 18.7 169.029 17.932C169.029 17.164 169.157 16.524 169.413 16.012C168.645 15.404 167.733 15.1 166.677 15.1C165.621 15.1 164.741 15.356 164.037 15.868C163.365 16.38 163.029 17.132 163.029 18.124C163.029 19.116 163.413 19.98 164.181 20.716C164.981 21.452 165.941 22.06 167.061 22.54C168.181 22.988 169.301 23.468 170.421 23.98C171.541 24.46 172.485 25.164 173.253 26.092C174.053 26.988 174.453 28.108 174.453 29.452C174.453 31.532 173.749 33.18 172.341 34.396C170.965 35.612 169.077 36.22 166.677 36.22C164.277 36.22 162.309 35.708 160.773 34.684C159.269 33.66 158.517 32.316 158.517 30.652V30.46C158.517 28.732 159.269 27.868 160.773 27.868C161.669 27.868 162.357 28.156 162.837 28.732C163.349 29.276 163.605 29.916 163.605 30.652C163.605 31.388 163.525 31.964 163.365 32.38C164.005 32.796 165.013 33.004 166.389 33.004C167.797 33.004 168.853 32.764 169.557 32.284C170.293 31.804 170.661 31.148 170.661 30.316C170.661 29.452 170.261 28.684 169.461 28.012C168.693 27.34 167.749 26.78 166.629 26.332C165.509 25.852 164.389 25.356 163.269 24.844C162.149 24.3 161.189 23.532 160.389 22.54C159.621 21.548 159.237 20.364 159.237 18.988C159.237 17.004 159.925 15.436 161.301 14.284C162.709 13.132 164.533 12.556 166.773 12.556ZM180.084 27.724C180.084 27.724 180.116 24.156 180.18 17.02C180.18 16.54 180.164 16.172 180.132 15.916C178.788 15.916 177.828 15.932 177.252 15.964C177.06 15.452 176.964 14.956 176.964 14.476C176.964 13.964 176.996 13.58 177.06 13.324H179.988L179.748 9.772C180.548 9.516 181.38 9.388 182.244 9.388C183.14 9.388 183.876 9.452 184.452 9.58L184.02 13.276C185.78 13.244 187.556 13.148 189.348 12.988C189.54 13.404 189.636 13.868 189.636 14.38C189.636 14.86 189.572 15.452 189.444 16.156C188.26 16.092 186.388 16.028 183.828 15.964C183.764 16.604 183.732 17.548 183.732 18.796V28.54C183.732 29.372 183.764 30.06 183.828 30.604C183.924 31.116 184.132 31.596 184.452 32.044C184.804 32.46 185.3 32.668 185.94 32.668C187.348 32.668 188.692 32.172 189.972 31.18C190.644 32.14 190.98 33.436 190.98 35.068C189.22 35.836 187.684 36.22 186.372 36.22C185.092 36.22 184.068 36.044 183.3 35.692C182.532 35.372 181.94 34.988 181.524 34.54C181.108 34.06 180.788 33.404 180.564 32.572C180.244 31.388 180.084 29.772 180.084 27.724Z" fill="white"/>
</svg>
